HIERARCHY
ROOT SpineBase
{
  OFFSET 0.000000 0.000000 0.000000
  CHANNELS 6 Xposition Yposition Zposition Zrotation Xrotation Yrotation
  JOINT SpineMid
  {
    OFFSET 0.000000 30.277518 0.000000
    CHANNELS 3 Zrotation Xrotation Yrotation
    JOINT SpineShoulder
    {
      OFFSET 0.083455 22.369875 -0.546971
      CHANNELS 3 Zrotation Xrotation Yrotation
      JOINT Neck
      {
        OFFSET -0.024769 7.406257 -0.523981
        CHANNELS 3 Zrotation Xrotation Yrotation
        JOINT Head
        {
          OFFSET 4.867669 12.632149 1.207897
          CHANNELS 3 Zrotation Xrotation Yrotation
          End Site
          {
            OFFSET 0 0 0
          }
        }
      }
      JOINT ShoulderLeft
      {
        OFFSET -13.179648 -3.133508 -8.743545
        CHANNELS 3 Zrotation Xrotation Yrotation
        JOINT ElbowLeft
        {
          OFFSET -5.967742 -24.543982 -0.642116
          CHANNELS 3 Zrotation Xrotation Yrotation
          JOINT WristLeft
          {
            OFFSET -0.937687 -19.891990 -5.549448
            CHANNELS 3 Zrotation Xrotation Yrotation
            JOINT HandLeft
            {
              OFFSET 0.443487 -5.895576 0.829300
              CHANNELS 3 Zrotation Xrotation Yrotation
              JOINT HandTipLeft
              {
                OFFSET -0.315168 -4.650847 -0.829193
                CHANNELS 3 Zrotation Xrotation Yrotation
                End Site
                {
                  OFFSET 0 0 0
                }
              }
              JOINT ThumbLeft
              {
                OFFSET -2.830020 0.946397 -2.420440
                CHANNELS 3 Zrotation Xrotation Yrotation
                End Site
                {
                  OFFSET 0 0 0
                }
              }
            }
          }
        }
      }
      JOINT ShoulderRight
      {
        OFFSET 14.922866 -5.859895 3.375871
        CHANNELS 3 Zrotation Xrotation Yrotation
        JOINT ElbowRight
        {
          OFFSET 2.351156 -26.944127 4.378333
          CHANNELS 3 Zrotation Xrotation Yrotation
          JOINT WristRight
          {
            OFFSET -0.851323 -19.723860 -2.946789
            CHANNELS 3 Zrotation Xrotation Yrotation
            JOINT HandRight
            {
              OFFSET -0.268074 -4.842171 0.366794
              CHANNELS 3 Zrotation Xrotation Yrotation
              JOINT HandTipRight
              {
                OFFSET -0.560905 -6.119419 1.346132
                CHANNELS 3 Zrotation Xrotation Yrotation
                End Site
                {
                  OFFSET 0 0 0
                }
              }
              JOINT ThumbRight
              {
                OFFSET 2.452167 0.939166 -1.702994
                CHANNELS 3 Zrotation Xrotation Yrotation
                End Site
                {
                  OFFSET 0 0 0
                }
              }
            }
          }
        }
      }
    }
  }
  JOINT HipLeft
  {
    OFFSET -6.350550 0.984328 -5.494533
    CHANNELS 3 Zrotation Xrotation Yrotation
    JOINT KneeLeft
    {
      OFFSET -9.001643 -28.149875 5.371122
      CHANNELS 3 Zrotation Xrotation Yrotation
      JOINT AnkleLeft
      {
        OFFSET -4.247560 -31.258103 4.223789
        CHANNELS 3 Zrotation Xrotation Yrotation
        JOINT FootLeft
        {
          OFFSET 2.647306 -4.380138 -7.229165
          CHANNELS 3 Zrotation Xrotation Yrotation
          End Site
          {
            OFFSET 0 0 0
          }
        }
      }
    }
  }
  JOINT HipRight
  {
    OFFSET 5.638686 0.430838 -1.174812
    CHANNELS 3 Zrotation Xrotation Yrotation
    JOINT KneeRight
    {
      OFFSET -6.670927 -30.245593 8.074255
      CHANNELS 3 Zrotation Xrotation Yrotation
      JOINT AnkleRight
      {
        OFFSET -4.957356 -28.279020 6.268299
        CHANNELS 3 Zrotation Xrotation Yrotation
        JOINT FootRight
        {
          OFFSET 2.791300 -3.101032 -10.766763
          CHANNELS 3 Zrotation Xrotation Yrotation
          End Site
          {
            OFFSET 0 0 0
          }
        }
      }
    }
  }
}
MOTION
Frames: 13
Frame Time: 0.033333
36.928559 89.202095 333.145031 -4.957664 -5.009570 -12.483974 0.459347 -0.302492 12.143042 -0.083829 0.373570 -0.234325 8.531326 19.233683 -6.546927 0.000000 0.000000 0.000000 -13.433288 -9.434171 3.337061 16.505226 8.006812 -4.714669 6.939032 15.898146 -0.394706 -4.735312 -9.111816 -1.968748 0.000000 0.000000 0.000000 0.000000 0.000000 0.000000 1.570106 -9.504643 -1.727574 8.082154 12.911524 -0.586015 -12.717924 7.467690 0.500433 10.206228 26.554166 -1.709571 0.000000 0.000000 0.000000 0.000000 0.000000 0.000000 12.259198 14.855846 10.144857 -8.632705 -1.108623 -0.788622 -3.035251 -7.507985 2.558033 0.000000 0.000000 0.000000 3.051182 10.565043 11.205178 1.993527 0.800284 0.581483 -8.964885 -26.945547 6.765899 0.000000 0.000000 0.000000
37.330120 91.952489 333.461734 -4.494209 -5.003971 -14.261666 0.526309 -0.221485 13.954360 -0.060935 0.467568 -0.206881 9.228607 19.382841 -7.086321 0.000000 0.000000 0.000000 -11.692137 -8.401624 3.206011 14.276266 7.764094 -4.109401 7.734467 16.618195 -0.239742 -9.319180 -12.978454 -2.368625 0.000000 0.000000 0.000000 0.000000 0.000000 0.000000 0.523675 -9.754425 -1.855907 7.279664 11.213481 0.062696 -19.366448 3.315585 0.327496 19.080113 30.769536 -2.007858 0.000000 0.000000 0.000000 0.000000 0.000000 0.000000 10.139618 15.802451 11.685555 -7.595303 -3.253535 -0.099497 -5.006568 -14.279059 0.319190 0.000000 0.000000 0.000000 1.035296 12.203335 12.626738 1.911060 -1.592791 1.167157 -9.727420 -32.827481 14.363763 0.000000 0.000000 0.000000
37.137038 93.372582 333.571704 -4.552514 -4.785953 -14.737810 0.589666 -0.153015 14.435197 -0.040204 0.537934 -0.201312 11.758007 20.456467 -8.531823 0.000000 0.000000 0.000000 -9.620892 -7.677372 3.030352 11.956370 7.197991 -3.467801 9.394242 17.928680 -0.278335 -12.636672 -16.353922 -3.162099 0.000000 0.000000 0.000000 0.000000 0.000000 0.000000 0.490866 -10.084882 -1.865616 6.945385 10.184664 0.263792 -21.051129 1.059032 0.216361 24.028281 32.185437 -2.889686 0.000000 0.000000 0.000000 0.000000 0.000000 0.000000 9.480360 16.760861 11.795381 -7.528966 -5.675252 0.414324 -5.562820 -17.785603 -1.899279 0.000000 0.000000 0.000000 1.282777 12.308888 13.109466 0.678655 -1.871061 0.849794 -8.567880 -32.025471 17.150674 0.000000 0.000000 0.000000
36.845475 94.057393 333.494600 -4.386590 -4.140569 -14.505687 0.638229 -0.128958 14.239529 -0.028403 0.561016 -0.186779 10.711478 19.811079 -8.174128 0.000000 0.000000 0.000000 -7.798135 -7.286910 2.770837 10.327768 7.126484 -3.141093 9.806746 16.828155 0.000554 -12.883218 -17.099991 -3.263780 0.000000 0.000000 0.000000 0.000000 0.000000 0.000000 0.266411 -10.767645 -1.893478 7.497550 9.884211 0.084291 -19.021143 -2.116154 0.202894 21.664168 39.844322 -4.991238 0.000000 0.000000 0.000000 0.000000 0.000000 0.000000 9.080755 16.373603 11.549748 -8.584971 -7.116680 0.363612 -7.132421 -26.347124 -5.552484 0.000000 0.000000 0.000000 2.359952 11.284590 13.123259 -0.522948 -1.143363 0.309505 -6.937039 -22.896722 17.148233 0.000000 0.000000 0.000000
36.385322 93.525086 333.315162 -4.379688 -3.087805 -13.915560 0.678389 -0.134441 13.691163 -0.021985 0.550474 -0.178113 11.842066 19.089161 -8.538492 0.000000 0.000000 0.000000 -6.274857 -7.220590 2.464771 9.380267 7.621219 -2.974814 10.139717 11.921831 0.509091 -14.564503 -13.579293 -2.716037 0.000000 0.000000 0.000000 0.000000 0.000000 0.000000 0.220634 -11.805813 -1.928302 7.197145 9.446095 0.225241 -11.606220 -0.763790 0.585331 16.989069 42.235441 -6.100842 0.000000 0.000000 0.000000 0.000000 0.000000 0.000000 9.547619 15.015775 11.211058 -10.300079 -6.429201 -0.224617 -5.536498 -26.600749 -4.601056 0.000000 0.000000 0.000000 3.670417 9.152519 12.919192 -1.006421 0.072688 -0.117983 -5.771511 -18.510751 12.108679 0.000000 0.000000 0.000000
35.633205 91.506340 333.065677 -4.490074 -1.848290 -13.971262 0.728410 -0.157799 13.790889 -0.011748 0.503814 -0.174141 13.246232 17.946202 -8.748927 0.000000 0.000000 0.000000 -4.929841 -7.446764 2.194551 9.198902 8.706514 -3.118006 9.409259 6.597370 1.282227 -14.503798 -8.403685 -1.975924 0.000000 0.000000 0.000000 0.000000 0.000000 0.000000 0.288324 -12.972186 -1.961662 7.340890 8.577790 0.240253 -2.497348 2.051157 0.787230 4.868064 47.573791 -6.751010 0.000000 0.000000 0.000000 0.000000 0.000000 0.000000 10.426546 13.443117 11.673897 -11.725031 -6.367402 -0.658679 -2.820765 -19.936101 -1.336233 0.000000 0.000000 0.000000 5.088246 7.124072 13.417551 -1.868642 0.193362 -0.437887 -4.668702 -16.051430 7.570111 0.000000 0.000000 0.000000
34.903780 88.386125 333.108404 -4.446960 -0.741358 -13.970535 0.686224 -0.163708 13.836657 -0.037510 0.445876 -0.170183 14.479848 16.210260 -8.551007 0.000000 0.000000 0.000000 -4.561966 -7.713363 1.951362 10.255923 9.742109 -3.526014 7.261175 2.504885 1.936245 -12.483693 -6.486099 -1.371535 0.000000 0.000000 0.000000 0.000000 0.000000 0.000000 0.323628 -14.037523 -1.992361 7.167345 8.738796 0.285100 3.333688 1.301187 0.868933 0.406290 54.585751 -8.911236 0.000000 0.000000 0.000000 0.000000 0.000000 0.000000 10.922829 12.538672 11.865112 -12.941799 -7.628818 -0.846579 0.966286 -6.977773 2.399848 0.000000 0.000000 0.000000 7.133329 5.612767 14.045432 -4.823694 -0.348387 -1.175019 -3.721182 -15.956535 8.275368 0.000000 0.000000 0.000000
34.402093 83.622748 333.688223 -4.022055 -0.173414 -13.837068 0.585477 -0.152738 13.737212 -0.077577 0.381068 -0.156923 15.385005 15.209047 -8.545951 0.000000 0.000000 0.000000 -4.833494 -7.783490 1.790423 11.277648 10.368125 -3.879128 5.362808 1.748761 2.268193 -9.121291 -6.979971 -1.492979 0.000000 0.000000 0.000000 0.000000 0.000000 0.000000 0.040856 -14.596530 -2.028799 8.063274 9.229707 -0.078493 12.459772 8.010981 -0.172448 -8.370890 54.573510 -11.194156 0.000000 0.000000 0.000000 0.000000 0.000000 0.000000 10.267683 13.129170 11.371146 -14.041031 -11.292674 -0.747886 3.988972 3.869999 4.146431 0.000000 0.000000 0.000000 8.638324 5.297567 14.395938 -8.778651 -2.400203 -1.906981 -3.348308 -22.423314 8.626135 0.000000 0.000000 0.000000
33.988426 78.072746 334.619808 -3.472487 0.069239 -13.809407 0.514056 -0.198878 13.730151 -0.125086 0.296788 -0.141080 15.577917 14.375149 -8.352785 0.000000 0.000000 0.000000 -5.325627 -7.698924 1.705549 12.498345 11.501068 -4.390724 3.948354 -0.128184 2.680606 -9.218721 -5.031829 -1.377626 0.000000 0.000000 0.000000 0.000000 0.000000 0.000000 -0.374789 -14.751036 -2.062793 7.862821 9.158599 -0.005047 16.567279 14.911976 -2.105748 -9.448199 53.236538 -13.720881 0.000000 0.000000 0.000000 0.000000 0.000000 0.000000 9.250518 14.960297 10.581618 -15.353827 -16.764561 -0.651368 6.547758 13.248372 5.132622 0.000000 0.000000 0.000000 9.948393 6.185910 14.639383 -13.256613 -4.966437 -2.824967 -2.145305 -23.413311 21.679310 0.000000 0.000000 0.000000
33.614494 72.475225 335.721769 -2.919958 -0.015252 -13.689686 0.486027 -0.349335 13.619029 -0.139869 0.213909 -0.124095 15.206730 14.226959 -8.259728 0.000000 0.000000 0.000000 -5.879967 -7.401590 1.708911 13.228298 11.656109 -4.694785 3.874622 -0.216967 2.958184 -6.181579 -3.453423 -1.978106 0.000000 0.000000 0.000000 0.000000 0.000000 0.000000 -0.843482 -14.468908 -2.083499 6.817211 8.665107 0.402648 17.026187 17.494489 -2.958820 -14.121962 54.497671 -13.208744 0.000000 0.000000 0.000000 0.000000 0.000000 0.000000 8.188410 17.925735 9.359709 -17.014377 -23.554956 -0.780732 9.688202 20.347885 4.077164 0.000000 0.000000 0.000000 10.874829 8.533321 14.365151 -17.827374 -8.638970 -3.925635 -0.340991 -23.355866 39.009683 0.000000 0.000000 0.000000
33.341795 67.431963 336.877941 -2.390900 -0.437998 -13.725814 0.500902 -0.408943 13.660840 -0.142393 0.194582 -0.103948 13.790987 14.049909 -7.840585 0.000000 0.000000 0.000000 -6.535712 -7.190542 1.784344 13.808812 11.257895 -4.961224 3.789808 2.001628 3.053169 -1.736155 -4.841388 -2.695067 0.000000 0.000000 0.000000 0.000000 0.000000 0.000000 -1.363971 -13.986410 -2.096194 5.180020 8.066454 1.016422 13.358736 19.201635 -2.965269 -15.327379 65.130555 -12.939608 0.000000 0.000000 0.000000 0.000000 0.000000 0.000000 6.357146 22.294063 7.865517 -17.356847 -32.496947 -0.462818 11.890970 26.343017 2.570535 0.000000 0.000000 0.000000 11.233255 12.327363 13.737745 -22.070120 -13.335287 -5.285114 1.779035 -23.599275 63.296536 0.000000 0.000000 0.000000
33.213745 63.480810 338.049058 -1.989896 -1.251549 -13.864806 0.524499 -0.357806 13.800026 -0.138947 0.212197 -0.088475 12.373714 14.602046 -7.669354 0.000000 0.000000 0.000000 -6.674440 -6.790770 1.926514 14.028089 10.878073 -5.238516 3.437614 2.954465 3.107134 0.794577 -3.844418 -3.156956 0.000000 0.000000 0.000000 0.000000 0.000000 0.000000 -1.648754 -13.649211 -2.093520 2.070916 7.166784 2.120768 9.487730 16.675700 -2.271761 168.193073 44.352113 113.473721 0.000000 0.000000 0.000000 0.000000 0.000000 0.000000 4.821909 27.094646 6.517077 -17.860959 -40.615723 -0.406285 13.759403 28.331522 0.020873 0.000000 0.000000 0.000000 11.458657 17.190587 12.847734 -26.197952 -17.801267 -7.117124 2.496484 -19.457083 69.674021 0.000000 0.000000 0.000000
33.079700 60.745965 339.091929 -1.617762 -2.178457 -14.458264 0.541233 -0.312429 14.395467 -0.135322 0.212009 -0.075937 11.343751 15.754395 -7.812979 0.000000 0.000000 0.000000 -6.291718 -6.102511 2.068346 12.654944 9.364291 -4.864131 4.177661 6.398157 2.749041 4.832525 -3.421538 -3.883690 0.000000 0.000000 0.000000 0.000000 0.000000 0.000000 -2.089484 -12.695707 -2.075187 0.612010 6.843316 2.641209 4.771983 14.519302 -1.557895 170.374314 40.992528 141.701865 0.000000 0.000000 0.000000 0.000000 0.000000 0.000000 3.316745 31.445213 5.953107 -18.124665 -46.272641 -0.371885 15.471038 31.639132 -1.185065 0.000000 0.000000 0.000000 10.861180 22.054568 12.295595 -27.625944 -21.410795 -8.121878 1.146043 -16.637553 73.915957 0.000000 0.000000 0.000000
